M48
; DRILL file {KiCad (5.1.4)-1} date 11-9-2019 17:43:21
; FORMAT={-:-/ absolute / metric / decimal}
; #@! TF.CreationDate,2019-09-11T17:43:21+02:00
; #@! TF.GenerationSoftware,Kicad,Pcbnew,(5.1.4)-1
; #@! TF.FileFunction,NonPlated,1,16,NPTH
FMAT,2
METRIC
T1C0.889
T2C1.600
T3C2.108
T4C3.785
T5C10.160
%
G90
G05
T1
X102.273Y-85.729
X102.273Y-92.529
T2
X181.521Y-101.194
X181.521Y-103.734
X190.665Y-79.175
X190.665Y-85.175
T3
X153.708Y-114.656
X134.023Y-90.145
X119.799Y-90.145
X112.687Y-102.514
X186.22Y-114.656
X175.298Y-114.656
X141.135Y-102.464
X134.023Y-114.783
X119.799Y-114.783
X164.376Y-114.656
X175.298Y-90.272
T4
X194.856Y-132.944
X102.146Y-132.944
T5
X170.091Y-102.464
X126.911Y-102.464
T0
M30
