M48
; DRILL file {KiCad (5.1.4)-1} date 11-9-2019 17:43:21
; FORMAT={-:-/ absolute / metric / decimal}
; #@! TF.CreationDate,2019-09-11T17:43:21+02:00
; #@! TF.GenerationSoftware,Kicad,Pcbnew,(5.1.4)-1
; #@! TF.FileFunction,Plated,1,16,PTH
FMAT,2
METRIC
T1C0.432
%
G90
G05
T1
X114.363Y-95.148
X115.227Y-109.093
X121.196Y-124.308
X126.911Y-115.494
X127.165Y-87.706
X132.118Y-124.308
X136.182Y-97.892
X138.798Y-109.118
X138.976Y-94.59
X141.516Y-93.066
X142.913Y-93.955
X143.04Y-124.308
X143.929Y-119.228
X145.148Y-122.072
X145.301Y-95.58
X145.859Y-108.941
X146.723Y-108.052
X147.231Y-116.561
X147.866Y-108.179
X147.993Y-105.004
X148.247Y-103.099
X148.501Y-113.767
X148.628Y-107.29
X148.755Y-101.956
X148.755Y-104.115
X149.39Y-95.352
X150.914Y-97.638
X151.752Y-122.072
X152.438Y-103.353
X153.327Y-93.447
X153.962Y-124.308
X155.867Y-103.734
X156.629Y-109.703
X156.756Y-101.448
X157.01Y-98.908
X157.899Y-109.703
X158.407Y-94.844
X158.661Y-108.814
X158.89Y-90.805
X158.94Y-116.637
X159.169Y-74.905
X159.296Y-97.892
X159.677Y-108.306
X160.541Y-102.083
X161.074Y-98.146
X161.074Y-103.226
X161.963Y-100.686
X162.852Y-99.797
X163.182Y-102.083
X164.884Y-124.308
X165.214Y-107.696
X165.392Y-97.765
X169.812Y-116.459
X169.939Y-92.202
X174.409Y-97.257
X175.933Y-124.308
X176.949Y-103.734
X179.108Y-98.146
X180.81Y-116.51
X181.521Y-98.146
X184.188Y-97.892
X187.363Y-97.257
X187.363Y-106.147
X188.379Y-102.083
X190.005Y-110.312
X193.84Y-89.764
T0
M30
