<?xml version="1.0" standalone="no"?>
 <!DOCTYPE svg PUBLIC "-//W3C//DTD SVG 1.1//EN" 
 "http://www.w3.org/Graphics/SVG/1.1/DTD/svg11.dtd"> 
<svg xmlns="http://www.w3.org/2000/svg" version="1.1" 
    width="29.7002cm" height="21.0007cm" viewBox="0 0 116930 82680 ">
<title>SVG Picture created as mixtape2-PTH-drl_map.svg date 2019/09/11 17:43:37 </title>
  <desc>Picture generated by PCBNEW </desc>
<g style="fill:#000000; fill-opacity:1;stroke:#000000; stroke-opacity:1;
stroke-linecap:round; stroke-linejoin:round; "
 transform="translate(0 0) scale(1 1)">
</g>
<g style="fill:#000000; fill-opacity:0.0; 
stroke:#000000; stroke-width:-0.000393701; stroke-opacity:1; 
stroke-linecap:round; stroke-linejoin:round;">
</g>
<g style="fill:#000000; fill-opacity:0.0; 
stroke:#000000; stroke-width:59.0551; stroke-opacity:1; 
stroke-linecap:round; stroke-linejoin:round;">
<path d="M78215 29840 A1000 1000 0.0 0 0 77215 28840 " />
<path d="M77215 28840
L39715 28840
" />
<path d="M39715 28840 A1000 1000 0.0 0 0 38715 29840 " />
<path d="M38715 29840
L38715 52840
" />
<path d="M38715 52840 A1000 1000 0.0 0 0 39715 53840 " />
<path d="M39715 53840
L77215 53840
" />
<path d="M77215 53840 A1000 1000 0.0 0 0 78215 52840 " />
<path d="M78215 52840
L78215 29840
" />
</g>
<g style="fill:#000000; fill-opacity:0.0; 
stroke:#000000; stroke-width:78.7402; stroke-opacity:1; 
stroke-linecap:round; stroke-linejoin:round;">
<path d="M44940 37375
L45110 37545
" />
<path d="M45110 37375
L44940 37545
" />
<path d="M45280 42865
L45450 43035
" />
<path d="M45450 42865
L45280 43035
" />
<path d="M47630 48855
L47800 49025
" />
<path d="M47800 48855
L47630 49025
" />
<path d="M49880 45385
L50050 45555
" />
<path d="M50050 45385
L49880 45555
" />
<path d="M49980 34445
L50150 34615
" />
<path d="M50150 34445
L49980 34615
" />
<path d="M51930 48855
L52100 49025
" />
<path d="M52100 48855
L51930 49025
" />
<path d="M53530 38455
L53700 38625
" />
<path d="M53700 38455
L53530 38625
" />
<path d="M54560 42875
L54730 43045
" />
<path d="M54730 42875
L54560 43045
" />
<path d="M54630 37155
L54800 37325
" />
<path d="M54800 37155
L54630 37325
" />
<path d="M55630 36555
L55800 36725
" />
<path d="M55800 36555
L55630 36725
" />
<path d="M56180 36905
L56350 37075
" />
<path d="M56350 36905
L56180 37075
" />
<path d="M56230 48855
L56400 49025
" />
<path d="M56400 48855
L56230 49025
" />
<path d="M56580 46855
L56750 47025
" />
<path d="M56750 46855
L56580 47025
" />
<path d="M57060 47975
L57230 48145
" />
<path d="M57230 47975
L57060 48145
" />
<path d="M57120 37545
L57290 37715
" />
<path d="M57290 37545
L57120 37715
" />
<path d="M57340 42805
L57510 42975
" />
<path d="M57510 42805
L57340 42975
" />
<path d="M57680 42455
L57850 42625
" />
<path d="M57850 42455
L57680 42625
" />
<path d="M57880 45805
L58050 45975
" />
<path d="M58050 45805
L57880 45975
" />
<path d="M58130 42505
L58300 42675
" />
<path d="M58300 42505
L58130 42675
" />
<path d="M58180 41255
L58350 41425
" />
<path d="M58350 41255
L58180 41425
" />
<path d="M58280 40505
L58450 40675
" />
<path d="M58450 40505
L58280 40675
" />
<path d="M58380 44705
L58550 44875
" />
<path d="M58550 44705
L58380 44875
" />
<path d="M58430 42155
L58600 42325
" />
<path d="M58600 42155
L58430 42325
" />
<path d="M58480 40055
L58650 40225
" />
<path d="M58650 40055
L58480 40225
" />
<path d="M58480 40905
L58650 41075
" />
<path d="M58650 40905
L58480 41075
" />
<path d="M58730 37455
L58900 37625
" />
<path d="M58900 37455
L58730 37625
" />
<path d="M59330 38355
L59500 38525
" />
<path d="M59500 38355
L59330 38525
" />
<path d="M59660 47975
L59830 48145
" />
<path d="M59830 47975
L59660 48145
" />
<path d="M59930 40605
L60100 40775
" />
<path d="M60100 40605
L59930 40775
" />
<path d="M60280 36705
L60450 36875
" />
<path d="M60450 36705
L60280 36875
" />
<path d="M60530 48855
L60700 49025
" />
<path d="M60700 48855
L60530 49025
" />
<path d="M61280 40755
L61450 40925
" />
<path d="M61450 40755
L61280 40925
" />
<path d="M61580 43105
L61750 43275
" />
<path d="M61750 43105
L61580 43275
" />
<path d="M61630 39855
L61800 40025
" />
<path d="M61800 39855
L61630 40025
" />
<path d="M61730 38855
L61900 39025
" />
<path d="M61900 38855
L61730 39025
" />
<path d="M62080 43105
L62250 43275
" />
<path d="M62250 43105
L62080 43275
" />
<path d="M62280 37255
L62450 37425
" />
<path d="M62450 37255
L62280 37425
" />
<path d="M62380 42755
L62550 42925
" />
<path d="M62550 42755
L62380 42925
" />
<path d="M62470 35665
L62640 35835
" />
<path d="M62640 35665
L62470 35835
" />
<path d="M62490 45835
L62660 46005
" />
<path d="M62660 45835
L62490 46005
" />
<path d="M62580 29405
L62750 29575
" />
<path d="M62750 29405
L62580 29575
" />
<path d="M62630 38455
L62800 38625
" />
<path d="M62800 38455
L62630 38625
" />
<path d="M62780 42555
L62950 42725
" />
<path d="M62950 42555
L62780 42725
" />
<path d="M63120 40105
L63290 40275
" />
<path d="M63290 40105
L63120 40275
" />
<path d="M63330 38555
L63500 38725
" />
<path d="M63500 38555
L63330 38725
" />
<path d="M63330 40555
L63500 40725
" />
<path d="M63500 40555
L63330 40725
" />
<path d="M63680 39555
L63850 39725
" />
<path d="M63850 39555
L63680 39725
" />
<path d="M64030 39205
L64200 39375
" />
<path d="M64200 39205
L64030 39375
" />
<path d="M64160 40105
L64330 40275
" />
<path d="M64330 40105
L64160 40275
" />
<path d="M64830 48855
L65000 49025
" />
<path d="M65000 48855
L64830 49025
" />
<path d="M64960 42315
L65130 42485
" />
<path d="M65130 42315
L64960 42485
" />
<path d="M65030 38405
L65200 38575
" />
<path d="M65200 38405
L65030 38575
" />
<path d="M66770 45765
L66940 45935
" />
<path d="M66940 45765
L66770 45935
" />
<path d="M66820 36215
L66990 36385
" />
<path d="M66990 36215
L66820 36385
" />
<path d="M68580 38205
L68750 38375
" />
<path d="M68750 38205
L68580 38375
" />
<path d="M69180 48855
L69350 49025
" />
<path d="M69350 48855
L69180 49025
" />
<path d="M69580 40755
L69750 40925
" />
<path d="M69750 40755
L69580 40925
" />
<path d="M70430 38555
L70600 38725
" />
<path d="M70600 38555
L70430 38725
" />
<path d="M71100 45785
L71270 45955
" />
<path d="M71270 45785
L71100 45955
" />
<path d="M71380 38555
L71550 38725
" />
<path d="M71550 38555
L71380 38725
" />
<path d="M72430 38455
L72600 38625
" />
<path d="M72600 38455
L72430 38625
" />
<path d="M73680 38205
L73850 38375
" />
<path d="M73850 38205
L73680 38375
" />
<path d="M73680 41705
L73850 41875
" />
<path d="M73850 41705
L73680 41875
" />
<path d="M74080 40105
L74250 40275
" />
<path d="M74250 40105
L74080 40275
" />
<path d="M74720 43345
L74890 43515
" />
<path d="M74890 43345
L74720 43515
" />
<path d="M76230 35255
L76400 35425
" />
<path d="M76400 35255
L76230 35425
" />
</g>
<g style="fill:#000000; fill-opacity:0.0; 
stroke:#000000; stroke-width:118.11; stroke-opacity:1; 
stroke-linecap:round; stroke-linejoin:round;">
<path d="M39813 55703
L39813 54521
L40094 54521
L40263 54578
L40375 54690
L40431 54803
L40488 55028
L40488 55196
L40431 55421
L40375 55534
L40263 55646
L40094 55703
L39813 55703
" />
<path d="M40994 55703
L40994 54915
" />
<path d="M40994 55140
L41050 55028
L41106 54971
L41219 54915
L41331 54915
" />
<path d="M41725 55703
L41725 54915
" />
<path d="M41725 54521
L41669 54578
L41725 54634
L41781 54578
L41725 54521
L41725 54634
" />
<path d="M42456 55703
L42344 55646
L42287 55534
L42287 54521
" />
<path d="M43075 55703
L42962 55646
L42906 55534
L42906 54521
" />
<path d="M44425 55703
L44425 54521
L44818 55365
L45212 54521
L45212 55703
" />
<path d="M46281 55703
L46281 55084
L46224 54971
L46112 54915
L45887 54915
L45774 54971
" />
<path d="M46281 55646
L46168 55703
L45887 55703
L45774 55646
L45718 55534
L45718 55421
L45774 55309
L45887 55253
L46168 55253
L46281 55196
" />
<path d="M46843 54915
L46843 56096
" />
<path d="M46843 54971
L46956 54915
L47180 54915
L47293 54971
L47349 55028
L47405 55140
L47405 55478
L47349 55590
L47293 55646
L47180 55703
L46956 55703
L46843 55646
" />
<path d="M47912 55590
L47968 55646
L47912 55703
L47855 55646
L47912 55590
L47912 55703
" />
<path d="M47912 54971
L47968 55028
L47912 55084
L47855 55028
L47912 54971
L47912 55084
" />
<path d="M38515 57564
L38685 57734
" />
<path d="M38685 57564
L38515 57734
" />
<path d="M40038 57002
L40150 57002
L40263 57058
L40319 57114
L40375 57227
L40431 57452
L40431 57733
L40375 57958
L40319 58070
L40263 58127
L40150 58183
L40038 58183
L39925 58127
L39869 58070
L39813 57958
L39756 57733
L39756 57452
L39813 57227
L39869 57114
L39925 57058
L40038 57002
" />
<path d="M40938 58070
L40994 58127
L40938 58183
L40881 58127
L40938 58070
L40938 58183
" />
<path d="M42006 57395
L42006 58183
" />
<path d="M41725 56946
L41444 57789
L42175 57789
" />
<path d="M42512 57002
L43243 57002
L42850 57452
L43018 57452
L43131 57508
L43187 57564
L43243 57677
L43243 57958
L43187 58070
L43131 58127
L43018 58183
L42681 58183
L42569 58127
L42512 58070
" />
<path d="M43750 58183
L43750 57395
" />
<path d="M43750 57508
L43806 57452
L43918 57395
L44087 57395
L44200 57452
L44256 57564
L44256 58183
" />
<path d="M44256 57564
L44312 57452
L44425 57395
L44593 57395
L44706 57452
L44762 57564
L44762 58183
" />
<path d="M45324 58183
L45324 57395
" />
<path d="M45324 57508
L45381 57452
L45493 57395
L45662 57395
L45774 57452
L45831 57564
L45831 58183
" />
<path d="M45831 57564
L45887 57452
L45999 57395
L46168 57395
L46281 57452
L46337 57564
L46337 58183
" />
<path d="M48643 56946
L47630 58464
" />
<path d="M50161 57002
L50274 57002
L50386 57058
L50443 57114
L50499 57227
L50555 57452
L50555 57733
L50499 57958
L50443 58070
L50386 58127
L50274 58183
L50161 58183
L50049 58127
L49993 58070
L49936 57958
L49880 57733
L49880 57452
L49936 57227
L49993 57114
L50049 57058
L50161 57002
" />
<path d="M51061 58070
L51117 58127
L51061 58183
L51005 58127
L51061 58070
L51061 58183
" />
<path d="M51849 57002
L51961 57002
L52074 57058
L52130 57114
L52186 57227
L52242 57452
L52242 57733
L52186 57958
L52130 58070
L52074 58127
L51961 58183
L51849 58183
L51736 58127
L51680 58070
L51624 57958
L51567 57733
L51567 57452
L51624 57227
L51680 57114
L51736 57058
L51849 57002
" />
<path d="M53367 58183
L52692 58183
" />
<path d="M53030 58183
L53030 57002
L52917 57170
L52805 57283
L52692 57339
" />
<path d="M53761 57002
L54548 57002
L54042 58183
" />
<path d="M54942 57002
L54942 57227
" />
<path d="M55392 57002
L55392 57227
" />
<path d="M57135 58633
L57079 58577
L56967 58408
L56911 58295
L56854 58127
L56798 57845
L56798 57620
L56854 57339
L56911 57170
L56967 57058
L57079 56889
L57135 56833
" />
<path d="M58092 57002
L57867 57002
L57754 57058
L57698 57114
L57585 57283
L57529 57508
L57529 57958
L57585 58070
L57642 58127
L57754 58183
L57979 58183
L58092 58127
L58148 58070
L58204 57958
L58204 57677
L58148 57564
L58092 57508
L57979 57452
L57754 57452
L57642 57508
L57585 57564
L57529 57677
" />
<path d="M59216 57002
L58991 57002
L58879 57058
L58823 57114
L58710 57283
L58654 57508
L58654 57958
L58710 58070
L58767 58127
L58879 58183
L59104 58183
L59216 58127
L59273 58070
L59329 57958
L59329 57677
L59273 57564
L59216 57508
L59104 57452
L58879 57452
L58767 57508
L58710 57564
L58654 57677
" />
<path d="M60735 58183
L60735 57002
" />
<path d="M61241 58183
L61241 57564
L61185 57452
L61072 57395
L60904 57395
L60791 57452
L60735 57508
" />
<path d="M61972 58183
L61860 58127
L61804 58070
L61747 57958
L61747 57620
L61804 57508
L61860 57452
L61972 57395
L62141 57395
L62254 57452
L62310 57508
L62366 57620
L62366 57958
L62310 58070
L62254 58127
L62141 58183
L61972 58183
" />
<path d="M63041 58183
L62929 58127
L62872 58014
L62872 57002
" />
<path d="M63941 58127
L63828 58183
L63603 58183
L63491 58127
L63435 58014
L63435 57564
L63491 57452
L63603 57395
L63828 57395
L63941 57452
L63997 57564
L63997 57677
L63435 57789
" />
<path d="M64447 58127
L64560 58183
L64785 58183
L64897 58127
L64953 58014
L64953 57958
L64897 57845
L64785 57789
L64616 57789
L64503 57733
L64447 57620
L64447 57564
L64503 57452
L64616 57395
L64785 57395
L64897 57452
" />
<path d="M65347 58633
L65403 58577
L65516 58408
L65572 58295
L65628 58127
L65684 57845
L65684 57620
L65628 57339
L65572 57170
L65516 57058
L65403 56889
L65347 56833
" />
</g> 
</svg>
