<?xml version="1.0" standalone="no"?>
 <!DOCTYPE svg PUBLIC "-//W3C//DTD SVG 1.1//EN" 
 "http://www.w3.org/Graphics/SVG/1.1/DTD/svg11.dtd"> 
<svg xmlns="http://www.w3.org/2000/svg" version="1.1" 
    width="29.7002cm" height="21.0007cm" viewBox="0 0 116930 82680 ">
<title>SVG Picture created as mixtape2-NPTH-drl_map.svg date 2019/09/11 17:43:37 </title>
  <desc>Picture generated by PCBNEW </desc>
<g style="fill:#000000; fill-opacity:1;stroke:#000000; stroke-opacity:1;
stroke-linecap:round; stroke-linejoin:round; "
 transform="translate(0 0) scale(1 1)">
</g>
<g style="fill:#000000; fill-opacity:0.0; 
stroke:#000000; stroke-width:-0.000393701; stroke-opacity:1; 
stroke-linecap:round; stroke-linejoin:round;">
</g>
<g style="fill:#000000; fill-opacity:0.0; 
stroke:#000000; stroke-width:59.0551; stroke-opacity:1; 
stroke-linecap:round; stroke-linejoin:round;">
<path d="M78215 29840 A1000 1000 0.0 0 0 77215 28840 " />
<path d="M77215 28840
L39715 28840
" />
<path d="M39715 28840 A1000 1000 0.0 0 0 38715 29840 " />
<path d="M38715 29840
L38715 52840
" />
<path d="M38715 52840 A1000 1000 0.0 0 0 39715 53840 " />
<path d="M39715 53840
L77215 53840
" />
<path d="M77215 53840 A1000 1000 0.0 0 0 78215 52840 " />
<path d="M78215 52840
L78215 29840
" />
</g>
<g style="fill:#000000; fill-opacity:0.0; 
stroke:#000000; stroke-width:78.7402; stroke-opacity:1; 
stroke-linecap:round; stroke-linejoin:round;">
<path d="M40090 33576
L40440 33926
" />
<path d="M40440 33576
L40090 33926
" />
<path d="M40090 36253
L40440 36603
" />
<path d="M40440 36253
L40090 36603
" />
<circle cx="71465" cy="39840" r="315" /> 
<circle cx="71465" cy="40840" r="315" /> 
<circle cx="75065" cy="31171.1" r="315" /> 
<circle cx="75065" cy="33533.3" r="315" /> 
<path d="M60515 44725
L60515 45555
" />
<path d="M60100 45140
L60930 45140
" />
<path d="M52765 35075
L52765 35905
" />
<path d="M52350 35490
L53180 35490
" />
<path d="M47165 35075
L47165 35905
" />
<path d="M46750 35490
L47580 35490
" />
<path d="M44365 39945
L44365 40775
" />
<path d="M43950 40360
L44780 40360
" />
<path d="M73315 44725
L73315 45555
" />
<path d="M72900 45140
L73730 45140
" />
<path d="M69015 44725
L69015 45555
" />
<path d="M68600 45140
L69430 45140
" />
<path d="M55565 39925
L55565 40755
" />
<path d="M55150 40340
L55980 40340
" />
<path d="M52765 44775
L52765 45605
" />
<path d="M52350 45190
L53180 45190
" />
<path d="M47165 44775
L47165 45605
" />
<path d="M46750 45190
L47580 45190
" />
<path d="M64715 44725
L64715 45555
" />
<path d="M64300 45140
L65130 45140
" />
<path d="M69015 35125
L69015 35955
" />
<path d="M68600 35540
L69430 35540
" />
<path style="fill:#000000; fill-opacity:0.0; 
stroke:#000000; stroke-width:78.7402; stroke-opacity:1; 
stroke-linecap:round; stroke-linejoin:round;fill:none"
d="M 77241,52866
77241,51813
76188,51813
76188,52866
77241,52866
Z" /> 
<path style="fill:#000000; fill-opacity:0.0; 
stroke:#000000; stroke-width:78.7402; stroke-opacity:1; 
stroke-linecap:round; stroke-linejoin:round;fill:none"
d="M 40741,52866
40741,51813
39688,51813
39688,52866
40741,52866
Z" /> 
<path style="fill:#000000; fill-opacity:0.0; 
stroke:#000000; stroke-width:78.7402; stroke-opacity:1; 
stroke-linecap:round; stroke-linejoin:round;fill:none"
d="M 66965,42340
68965,40340
66965,38340
64965,40340
66965,42340
Z" /> 
<path style="fill:#000000; fill-opacity:0.0; 
stroke:#000000; stroke-width:78.7402; stroke-opacity:1; 
stroke-linecap:round; stroke-linejoin:round;fill:none"
d="M 49965,42340
51965,40340
49965,38340
47965,40340
49965,42340
Z" /> 
</g>
<g style="fill:#000000; fill-opacity:0.0; 
stroke:#000000; stroke-width:118.11; stroke-opacity:1; 
stroke-linecap:round; stroke-linejoin:round;">
<path d="M39813 55703
L39813 54521
L40094 54521
L40263 54578
L40375 54690
L40431 54803
L40488 55028
L40488 55196
L40431 55421
L40375 55534
L40263 55646
L40094 55703
L39813 55703
" />
<path d="M40994 55703
L40994 54915
" />
<path d="M40994 55140
L41050 55028
L41106 54971
L41219 54915
L41331 54915
" />
<path d="M41725 55703
L41725 54915
" />
<path d="M41725 54521
L41669 54578
L41725 54634
L41781 54578
L41725 54521
L41725 54634
" />
<path d="M42456 55703
L42344 55646
L42287 55534
L42287 54521
" />
<path d="M43075 55703
L42962 55646
L42906 55534
L42906 54521
" />
<path d="M44425 55703
L44425 54521
L44818 55365
L45212 54521
L45212 55703
" />
<path d="M46281 55703
L46281 55084
L46224 54971
L46112 54915
L45887 54915
L45774 54971
" />
<path d="M46281 55646
L46168 55703
L45887 55703
L45774 55646
L45718 55534
L45718 55421
L45774 55309
L45887 55253
L46168 55253
L46281 55196
" />
<path d="M46843 54915
L46843 56096
" />
<path d="M46843 54971
L46956 54915
L47180 54915
L47293 54971
L47349 55028
L47405 55140
L47405 55478
L47349 55590
L47293 55646
L47180 55703
L46956 55703
L46843 55646
" />
<path d="M47912 55590
L47968 55646
L47912 55703
L47855 55646
L47912 55590
L47912 55703
" />
<path d="M47912 54971
L47968 55028
L47912 55084
L47855 55028
L47912 54971
L47912 55084
" />
<path d="M38335 57474
L38685 57824
" />
<path d="M38685 57474
L38335 57824
" />
<path d="M40038 57002
L40150 57002
L40263 57058
L40319 57114
L40375 57227
L40431 57452
L40431 57733
L40375 57958
L40319 58070
L40263 58127
L40150 58183
L40038 58183
L39925 58127
L39869 58070
L39813 57958
L39756 57733
L39756 57452
L39813 57227
L39869 57114
L39925 57058
L40038 57002
" />
<path d="M40938 58070
L40994 58127
L40938 58183
L40881 58127
L40938 58070
L40938 58183
" />
<path d="M41669 57508
L41556 57452
L41500 57395
L41444 57283
L41444 57227
L41500 57114
L41556 57058
L41669 57002
L41894 57002
L42006 57058
L42062 57114
L42119 57227
L42119 57283
L42062 57395
L42006 57452
L41894 57508
L41669 57508
L41556 57564
L41500 57620
L41444 57733
L41444 57958
L41500 58070
L41556 58127
L41669 58183
L41894 58183
L42006 58127
L42062 58070
L42119 57958
L42119 57733
L42062 57620
L42006 57564
L41894 57508
" />
<path d="M42681 58183
L42906 58183
L43018 58127
L43075 58070
L43187 57902
L43243 57677
L43243 57227
L43187 57114
L43131 57058
L43018 57002
L42794 57002
L42681 57058
L42625 57114
L42569 57227
L42569 57508
L42625 57620
L42681 57677
L42794 57733
L43018 57733
L43131 57677
L43187 57620
L43243 57508
" />
<path d="M43750 58183
L43750 57395
" />
<path d="M43750 57508
L43806 57452
L43918 57395
L44087 57395
L44200 57452
L44256 57564
L44256 58183
" />
<path d="M44256 57564
L44312 57452
L44425 57395
L44593 57395
L44706 57452
L44762 57564
L44762 58183
" />
<path d="M45324 58183
L45324 57395
" />
<path d="M45324 57508
L45381 57452
L45493 57395
L45662 57395
L45774 57452
L45831 57564
L45831 58183
" />
<path d="M45831 57564
L45887 57452
L45999 57395
L46168 57395
L46281 57452
L46337 57564
L46337 58183
" />
<path d="M48643 56946
L47630 58464
" />
<path d="M50161 57002
L50274 57002
L50386 57058
L50443 57114
L50499 57227
L50555 57452
L50555 57733
L50499 57958
L50443 58070
L50386 58127
L50274 58183
L50161 58183
L50049 58127
L49993 58070
L49936 57958
L49880 57733
L49880 57452
L49936 57227
L49993 57114
L50049 57058
L50161 57002
" />
<path d="M51061 58070
L51117 58127
L51061 58183
L51005 58127
L51061 58070
L51061 58183
" />
<path d="M51849 57002
L51961 57002
L52074 57058
L52130 57114
L52186 57227
L52242 57452
L52242 57733
L52186 57958
L52130 58070
L52074 58127
L51961 58183
L51849 58183
L51736 58127
L51680 58070
L51624 57958
L51567 57733
L51567 57452
L51624 57227
L51680 57114
L51736 57058
L51849 57002
" />
<path d="M52636 57002
L53367 57002
L52973 57452
L53142 57452
L53255 57508
L53311 57564
L53367 57677
L53367 57958
L53311 58070
L53255 58127
L53142 58183
L52805 58183
L52692 58127
L52636 58070
" />
<path d="M54436 57002
L53873 57002
L53817 57564
L53873 57508
L53986 57452
L54267 57452
L54380 57508
L54436 57564
L54492 57677
L54492 57958
L54436 58070
L54380 58127
L54267 58183
L53986 58183
L53873 58127
L53817 58070
" />
<path d="M54942 57002
L54942 57227
" />
<path d="M55392 57002
L55392 57227
" />
<path d="M57135 58633
L57079 58577
L56967 58408
L56911 58295
L56854 58127
L56798 57845
L56798 57620
L56854 57339
L56911 57170
L56967 57058
L57079 56889
L57135 56833
" />
<path d="M57529 57114
L57585 57058
L57698 57002
L57979 57002
L58092 57058
L58148 57114
L58204 57227
L58204 57339
L58148 57508
L57473 58183
L58204 58183
" />
<path d="M59610 58183
L59610 57002
" />
<path d="M60116 58183
L60116 57564
L60060 57452
L59948 57395
L59779 57395
L59666 57452
L59610 57508
" />
<path d="M60848 58183
L60735 58127
L60679 58070
L60623 57958
L60623 57620
L60679 57508
L60735 57452
L60848 57395
L61016 57395
L61129 57452
L61185 57508
L61241 57620
L61241 57958
L61185 58070
L61129 58127
L61016 58183
L60848 58183
" />
<path d="M61916 58183
L61804 58127
L61747 58014
L61747 57002
" />
<path d="M62816 58127
L62704 58183
L62479 58183
L62366 58127
L62310 58014
L62310 57564
L62366 57452
L62479 57395
L62704 57395
L62816 57452
L62872 57564
L62872 57677
L62310 57789
" />
<path d="M63322 58127
L63435 58183
L63660 58183
L63772 58127
L63828 58014
L63828 57958
L63772 57845
L63660 57789
L63491 57789
L63378 57733
L63322 57620
L63322 57564
L63378 57452
L63491 57395
L63660 57395
L63772 57452
" />
<path d="M64222 58633
L64278 58577
L64391 58408
L64447 58295
L64503 58127
L64560 57845
L64560 57620
L64503 57339
L64447 57170
L64391 57058
L64278 56889
L64222 56833
" />
<path d="M66359 58633
L66303 58577
L66191 58408
L66134 58295
L66078 58127
L66022 57845
L66022 57620
L66078 57339
L66134 57170
L66191 57058
L66303 56889
L66359 56833
" />
<path d="M66809 57395
L66809 58183
" />
<path d="M66809 57508
L66866 57452
L66978 57395
L67147 57395
L67259 57452
L67315 57564
L67315 58183
" />
<path d="M68047 58183
L67934 58127
L67878 58070
L67822 57958
L67822 57620
L67878 57508
L67934 57452
L68047 57395
L68215 57395
L68328 57452
L68384 57508
L68440 57620
L68440 57958
L68384 58070
L68328 58127
L68215 58183
L68047 58183
" />
<path d="M68778 57395
L69228 57395
" />
<path d="M68947 57002
L68947 58014
L69003 58127
L69115 58183
L69228 58183
" />
<path d="M70521 57395
L70521 58577
" />
<path d="M70521 57452
L70634 57395
L70859 57395
L70971 57452
L71027 57508
L71084 57620
L71084 57958
L71027 58070
L70971 58127
L70859 58183
L70634 58183
L70521 58127
" />
<path d="M71759 58183
L71646 58127
L71590 58014
L71590 57002
" />
<path d="M72715 58183
L72715 57564
L72659 57452
L72546 57395
L72321 57395
L72209 57452
" />
<path d="M72715 58127
L72602 58183
L72321 58183
L72209 58127
L72152 58014
L72152 57902
L72209 57789
L72321 57733
L72602 57733
L72715 57677
" />
<path d="M73108 57395
L73558 57395
" />
<path d="M73277 57002
L73277 58014
L73333 58127
L73446 58183
L73558 58183
" />
<path d="M74402 58127
L74290 58183
L74065 58183
L73952 58127
L73896 58014
L73896 57564
L73952 57452
L74065 57395
L74290 57395
L74402 57452
L74458 57564
L74458 57677
L73896 57789
" />
<path d="M75471 58183
L75471 57002
" />
<path d="M75471 58127
L75358 58183
L75133 58183
L75021 58127
L74964 58070
L74908 57958
L74908 57620
L74964 57508
L75021 57452
L75133 57395
L75358 57395
L75471 57452
" />
<path d="M75921 58633
L75977 58577
L76089 58408
L76146 58295
L76202 58127
L76258 57845
L76258 57620
L76202 57339
L76146 57170
L76089 57058
L75977 56889
L75921 56833
" />
<circle cx="38370.5" cy="59208.1" r="315" /> 
<path d="M40431 59742
L39756 59742
" />
<path d="M40094 59742
L40094 58561
L39981 58730
L39869 58842
L39756 58898
" />
<path d="M40938 59629
L40994 59686
L40938 59742
L40881 59686
L40938 59629
L40938 59742
" />
<path d="M42006 58561
L41781 58561
L41669 58617
L41612 58673
L41500 58842
L41444 59067
L41444 59517
L41500 59629
L41556 59686
L41669 59742
L41894 59742
L42006 59686
L42062 59629
L42119 59517
L42119 59236
L42062 59123
L42006 59067
L41894 59011
L41669 59011
L41556 59067
L41500 59123
L41444 59236
" />
<path d="M42850 58561
L42962 58561
L43075 58617
L43131 58673
L43187 58786
L43243 59011
L43243 59292
L43187 59517
L43131 59629
L43075 59686
L42962 59742
L42850 59742
L42737 59686
L42681 59629
L42625 59517
L42569 59292
L42569 59011
L42625 58786
L42681 58673
L42737 58617
L42850 58561
" />
<path d="M43750 59742
L43750 58955
" />
<path d="M43750 59067
L43806 59011
L43918 58955
L44087 58955
L44200 59011
L44256 59123
L44256 59742
" />
<path d="M44256 59123
L44312 59011
L44425 58955
L44593 58955
L44706 59011
L44762 59123
L44762 59742
" />
<path d="M45324 59742
L45324 58955
" />
<path d="M45324 59067
L45381 59011
L45493 58955
L45662 58955
L45774 59011
L45831 59123
L45831 59742
" />
<path d="M45831 59123
L45887 59011
L45999 58955
L46168 58955
L46281 59011
L46337 59123
L46337 59742
" />
<path d="M48643 58505
L47630 60023
" />
<path d="M50161 58561
L50274 58561
L50386 58617
L50443 58673
L50499 58786
L50555 59011
L50555 59292
L50499 59517
L50443 59629
L50386 59686
L50274 59742
L50161 59742
L50049 59686
L49993 59629
L49936 59517
L49880 59292
L49880 59011
L49936 58786
L49993 58673
L50049 58617
L50161 58561
" />
<path d="M51061 59629
L51117 59686
L51061 59742
L51005 59686
L51061 59629
L51061 59742
" />
<path d="M51849 58561
L51961 58561
L52074 58617
L52130 58673
L52186 58786
L52242 59011
L52242 59292
L52186 59517
L52130 59629
L52074 59686
L51961 59742
L51849 59742
L51736 59686
L51680 59629
L51624 59517
L51567 59292
L51567 59011
L51624 58786
L51680 58673
L51736 58617
L51849 58561
" />
<path d="M53255 58561
L53030 58561
L52917 58617
L52861 58673
L52749 58842
L52692 59067
L52692 59517
L52749 59629
L52805 59686
L52917 59742
L53142 59742
L53255 59686
L53311 59629
L53367 59517
L53367 59236
L53311 59123
L53255 59067
L53142 59011
L52917 59011
L52805 59067
L52749 59123
L52692 59236
" />
<path d="M53761 58561
L54492 58561
L54098 59011
L54267 59011
L54380 59067
L54436 59123
L54492 59236
L54492 59517
L54436 59629
L54380 59686
L54267 59742
L53930 59742
L53817 59686
L53761 59629
" />
<path d="M54942 58561
L54942 58786
" />
<path d="M55392 58561
L55392 58786
" />
<path d="M57135 60192
L57079 60136
L56967 59967
L56911 59854
L56854 59686
L56798 59404
L56798 59179
L56854 58898
L56911 58730
L56967 58617
L57079 58448
L57135 58392
" />
<path d="M58092 58955
L58092 59742
" />
<path d="M57810 58505
L57529 59348
L58260 59348
" />
<path d="M59610 59742
L59610 58561
" />
<path d="M60116 59742
L60116 59123
L60060 59011
L59948 58955
L59779 58955
L59666 59011
L59610 59067
" />
<path d="M60848 59742
L60735 59686
L60679 59629
L60623 59517
L60623 59179
L60679 59067
L60735 59011
L60848 58955
L61016 58955
L61129 59011
L61185 59067
L61241 59179
L61241 59517
L61185 59629
L61129 59686
L61016 59742
L60848 59742
" />
<path d="M61916 59742
L61804 59686
L61747 59573
L61747 58561
" />
<path d="M62816 59686
L62704 59742
L62479 59742
L62366 59686
L62310 59573
L62310 59123
L62366 59011
L62479 58955
L62704 58955
L62816 59011
L62872 59123
L62872 59236
L62310 59348
" />
<path d="M63322 59686
L63435 59742
L63660 59742
L63772 59686
L63828 59573
L63828 59517
L63772 59404
L63660 59348
L63491 59348
L63378 59292
L63322 59179
L63322 59123
L63378 59011
L63491 58955
L63660 58955
L63772 59011
" />
<path d="M64222 60192
L64278 60136
L64391 59967
L64447 59854
L64503 59686
L64560 59404
L64560 59179
L64503 58898
L64447 58730
L64391 58617
L64278 58448
L64222 58392
" />
<path d="M66359 60192
L66303 60136
L66191 59967
L66134 59854
L66078 59686
L66022 59404
L66022 59179
L66078 58898
L66134 58730
L66191 58617
L66303 58448
L66359 58392
" />
<path d="M66809 58955
L66809 59742
" />
<path d="M66809 59067
L66866 59011
L66978 58955
L67147 58955
L67259 59011
L67315 59123
L67315 59742
" />
<path d="M68047 59742
L67934 59686
L67878 59629
L67822 59517
L67822 59179
L67878 59067
L67934 59011
L68047 58955
L68215 58955
L68328 59011
L68384 59067
L68440 59179
L68440 59517
L68384 59629
L68328 59686
L68215 59742
L68047 59742
" />
<path d="M68778 58955
L69228 58955
" />
<path d="M68947 58561
L68947 59573
L69003 59686
L69115 59742
L69228 59742
" />
<path d="M70521 58955
L70521 60136
" />
<path d="M70521 59011
L70634 58955
L70859 58955
L70971 59011
L71027 59067
L71084 59179
L71084 59517
L71027 59629
L70971 59686
L70859 59742
L70634 59742
L70521 59686
" />
<path d="M71759 59742
L71646 59686
L71590 59573
L71590 58561
" />
<path d="M72715 59742
L72715 59123
L72659 59011
L72546 58955
L72321 58955
L72209 59011
" />
<path d="M72715 59686
L72602 59742
L72321 59742
L72209 59686
L72152 59573
L72152 59461
L72209 59348
L72321 59292
L72602 59292
L72715 59236
" />
<path d="M73108 58955
L73558 58955
" />
<path d="M73277 58561
L73277 59573
L73333 59686
L73446 59742
L73558 59742
" />
<path d="M74402 59686
L74290 59742
L74065 59742
L73952 59686
L73896 59573
L73896 59123
L73952 59011
L74065 58955
L74290 58955
L74402 59011
L74458 59123
L74458 59236
L73896 59348
" />
<path d="M75471 59742
L75471 58561
" />
<path d="M75471 59686
L75358 59742
L75133 59742
L75021 59686
L74964 59629
L74908 59517
L74908 59179
L74964 59067
L75021 59011
L75133 58955
L75358 58955
L75471 59011
" />
<path d="M75921 60192
L75977 60136
L76089 59967
L76146 59854
L76202 59686
L76258 59404
L76258 59179
L76202 58898
L76146 58730
L76089 58617
L75977 58448
L75921 58392
" />
<path d="M38270 60352
L38270 61182
" />
<path d="M37855 60767
L38685 60767
" />
<path d="M39756 60232
L39813 60176
L39925 60120
L40206 60120
L40319 60176
L40375 60232
L40431 60345
L40431 60457
L40375 60626
L39700 61301
L40431 61301
" />
<path d="M40938 61188
L40994 61245
L40938 61301
L40881 61245
L40938 61188
L40938 61301
" />
<path d="M42119 61301
L41444 61301
" />
<path d="M41781 61301
L41781 60120
L41669 60289
L41556 60401
L41444 60457
" />
<path d="M43243 61301
L42569 61301
" />
<path d="M42906 61301
L42906 60120
L42794 60289
L42681 60401
L42569 60457
" />
<path d="M43750 61301
L43750 60514
" />
<path d="M43750 60626
L43806 60570
L43918 60514
L44087 60514
L44200 60570
L44256 60682
L44256 61301
" />
<path d="M44256 60682
L44312 60570
L44425 60514
L44593 60514
L44706 60570
L44762 60682
L44762 61301
" />
<path d="M45324 61301
L45324 60514
" />
<path d="M45324 60626
L45381 60570
L45493 60514
L45662 60514
L45774 60570
L45831 60682
L45831 61301
" />
<path d="M45831 60682
L45887 60570
L45999 60514
L46168 60514
L46281 60570
L46337 60682
L46337 61301
" />
<path d="M48643 60064
L47630 61582
" />
<path d="M50161 60120
L50274 60120
L50386 60176
L50443 60232
L50499 60345
L50555 60570
L50555 60851
L50499 61076
L50443 61188
L50386 61245
L50274 61301
L50161 61301
L50049 61245
L49993 61188
L49936 61076
L49880 60851
L49880 60570
L49936 60345
L49993 60232
L50049 60176
L50161 60120
" />
<path d="M51061 61188
L51117 61245
L51061 61301
L51005 61245
L51061 61188
L51061 61301
" />
<path d="M51849 60120
L51961 60120
L52074 60176
L52130 60232
L52186 60345
L52242 60570
L52242 60851
L52186 61076
L52130 61188
L52074 61245
L51961 61301
L51849 61301
L51736 61245
L51680 61188
L51624 61076
L51567 60851
L51567 60570
L51624 60345
L51680 60232
L51736 60176
L51849 60120
" />
<path d="M52917 60626
L52805 60570
L52749 60514
L52692 60401
L52692 60345
L52749 60232
L52805 60176
L52917 60120
L53142 60120
L53255 60176
L53311 60232
L53367 60345
L53367 60401
L53311 60514
L53255 60570
L53142 60626
L52917 60626
L52805 60682
L52749 60739
L52692 60851
L52692 61076
L52749 61188
L52805 61245
L52917 61301
L53142 61301
L53255 61245
L53311 61188
L53367 61076
L53367 60851
L53311 60739
L53255 60682
L53142 60626
" />
<path d="M53761 60120
L54492 60120
L54098 60570
L54267 60570
L54380 60626
L54436 60682
L54492 60795
L54492 61076
L54436 61188
L54380 61245
L54267 61301
L53930 61301
L53817 61245
L53761 61188
" />
<path d="M54942 60120
L54942 60345
" />
<path d="M55392 60120
L55392 60345
" />
<path d="M57135 61751
L57079 61695
L56967 61526
L56911 61413
L56854 61245
L56798 60964
L56798 60739
L56854 60457
L56911 60289
L56967 60176
L57079 60007
L57135 59951
" />
<path d="M58204 61301
L57529 61301
" />
<path d="M57867 61301
L57867 60120
L57754 60289
L57642 60401
L57529 60457
" />
<path d="M59329 61301
L58654 61301
" />
<path d="M58991 61301
L58991 60120
L58879 60289
L58767 60401
L58654 60457
" />
<path d="M60735 61301
L60735 60120
" />
<path d="M61241 61301
L61241 60682
L61185 60570
L61072 60514
L60904 60514
L60791 60570
L60735 60626
" />
<path d="M61972 61301
L61860 61245
L61804 61188
L61747 61076
L61747 60739
L61804 60626
L61860 60570
L61972 60514
L62141 60514
L62254 60570
L62310 60626
L62366 60739
L62366 61076
L62310 61188
L62254 61245
L62141 61301
L61972 61301
" />
<path d="M63041 61301
L62929 61245
L62872 61132
L62872 60120
" />
<path d="M63941 61245
L63828 61301
L63603 61301
L63491 61245
L63435 61132
L63435 60682
L63491 60570
L63603 60514
L63828 60514
L63941 60570
L63997 60682
L63997 60795
L63435 60907
" />
<path d="M64447 61245
L64560 61301
L64785 61301
L64897 61245
L64953 61132
L64953 61076
L64897 60964
L64785 60907
L64616 60907
L64503 60851
L64447 60739
L64447 60682
L64503 60570
L64616 60514
L64785 60514
L64897 60570
" />
<path d="M65347 61751
L65403 61695
L65516 61526
L65572 61413
L65628 61245
L65684 60964
L65684 60739
L65628 60457
L65572 60289
L65516 60176
L65403 60007
L65347 59951
" />
<path d="M67484 61751
L67428 61695
L67315 61526
L67259 61413
L67203 61245
L67147 60964
L67147 60739
L67203 60457
L67259 60289
L67315 60176
L67428 60007
L67484 59951
" />
<path d="M67934 60514
L67934 61301
" />
<path d="M67934 60626
L67990 60570
L68103 60514
L68272 60514
L68384 60570
L68440 60682
L68440 61301
" />
<path d="M69171 61301
L69059 61245
L69003 61188
L68947 61076
L68947 60739
L69003 60626
L69059 60570
L69171 60514
L69340 60514
L69453 60570
L69509 60626
L69565 60739
L69565 61076
L69509 61188
L69453 61245
L69340 61301
L69171 61301
" />
<path d="M69903 60514
L70353 60514
" />
<path d="M70071 60120
L70071 61132
L70128 61245
L70240 61301
L70353 61301
" />
<path d="M71646 60514
L71646 61695
" />
<path d="M71646 60570
L71759 60514
L71984 60514
L72096 60570
L72152 60626
L72209 60739
L72209 61076
L72152 61188
L72096 61245
L71984 61301
L71759 61301
L71646 61245
" />
<path d="M72884 61301
L72771 61245
L72715 61132
L72715 60120
" />
<path d="M73840 61301
L73840 60682
L73783 60570
L73671 60514
L73446 60514
L73333 60570
" />
<path d="M73840 61245
L73727 61301
L73446 61301
L73333 61245
L73277 61132
L73277 61020
L73333 60907
L73446 60851
L73727 60851
L73840 60795
" />
<path d="M74233 60514
L74683 60514
" />
<path d="M74402 60120
L74402 61132
L74458 61245
L74571 61301
L74683 61301
" />
<path d="M75527 61245
L75414 61301
L75189 61301
L75077 61245
L75021 61132
L75021 60682
L75077 60570
L75189 60514
L75414 60514
L75527 60570
L75583 60682
L75583 60795
L75021 60907
" />
<path d="M76596 61301
L76596 60120
" />
<path d="M76596 61245
L76483 61301
L76258 61301
L76146 61245
L76089 61188
L76033 61076
L76033 60739
L76089 60626
L76146 60570
L76258 60514
L76483 60514
L76596 60570
" />
<path d="M77045 61751
L77102 61695
L77214 61526
L77270 61413
L77327 61245
L77383 60964
L77383 60739
L77327 60457
L77270 60289
L77214 60176
L77102 60007
L77045 59951
" />
<path style="fill:#000000; fill-opacity:0.0; 
stroke:#000000; stroke-width:118.11; stroke-opacity:1; 
stroke-linecap:round; stroke-linejoin:round;fill:none"
d="M 38467,62853
38467,61799
37413,61799
37413,62853
38467,62853
Z" /> 
<path d="M39700 61679
L40431 61679
L40038 62129
L40206 62129
L40319 62185
L40375 62241
L40431 62354
L40431 62635
L40375 62748
L40319 62804
L40206 62860
L39869 62860
L39756 62804
L39700 62748
" />
<path d="M40938 62748
L40994 62804
L40938 62860
L40881 62804
L40938 62748
L40938 62860
" />
<path d="M41387 61679
L42175 61679
L41669 62860
" />
<path d="M42794 62185
L42681 62129
L42625 62073
L42569 61960
L42569 61904
L42625 61791
L42681 61735
L42794 61679
L43018 61679
L43131 61735
L43187 61791
L43243 61904
L43243 61960
L43187 62073
L43131 62129
L43018 62185
L42794 62185
L42681 62241
L42625 62298
L42569 62410
L42569 62635
L42625 62748
L42681 62804
L42794 62860
L43018 62860
L43131 62804
L43187 62748
L43243 62635
L43243 62410
L43187 62298
L43131 62241
L43018 62185
" />
<path d="M43750 62860
L43750 62073
" />
<path d="M43750 62185
L43806 62129
L43918 62073
L44087 62073
L44200 62129
L44256 62241
L44256 62860
" />
<path d="M44256 62241
L44312 62129
L44425 62073
L44593 62073
L44706 62129
L44762 62241
L44762 62860
" />
<path d="M45324 62860
L45324 62073
" />
<path d="M45324 62185
L45381 62129
L45493 62073
L45662 62073
L45774 62129
L45831 62241
L45831 62860
" />
<path d="M45831 62241
L45887 62129
L45999 62073
L46168 62073
L46281 62129
L46337 62241
L46337 62860
" />
<path d="M48643 61623
L47630 63141
" />
<path d="M50161 61679
L50274 61679
L50386 61735
L50443 61791
L50499 61904
L50555 62129
L50555 62410
L50499 62635
L50443 62748
L50386 62804
L50274 62860
L50161 62860
L50049 62804
L49993 62748
L49936 62635
L49880 62410
L49880 62129
L49936 61904
L49993 61791
L50049 61735
L50161 61679
" />
<path d="M51061 62748
L51117 62804
L51061 62860
L51005 62804
L51061 62748
L51061 62860
" />
<path d="M52242 62860
L51567 62860
" />
<path d="M51905 62860
L51905 61679
L51792 61848
L51680 61960
L51567 62016
" />
<path d="M53255 62073
L53255 62860
" />
<path d="M52973 61623
L52692 62466
L53423 62466
" />
<path d="M53930 62860
L54155 62860
L54267 62804
L54323 62748
L54436 62579
L54492 62354
L54492 61904
L54436 61791
L54380 61735
L54267 61679
L54042 61679
L53930 61735
L53873 61791
L53817 61904
L53817 62185
L53873 62298
L53930 62354
L54042 62410
L54267 62410
L54380 62354
L54436 62298
L54492 62185
" />
<path d="M54942 61679
L54942 61904
" />
<path d="M55392 61679
L55392 61904
" />
<path d="M57135 63310
L57079 63254
L56967 63085
L56911 62973
L56854 62804
L56798 62523
L56798 62298
L56854 62016
L56911 61848
L56967 61735
L57079 61566
L57135 61510
" />
<path d="M57529 61791
L57585 61735
L57698 61679
L57979 61679
L58092 61735
L58148 61791
L58204 61904
L58204 62016
L58148 62185
L57473 62860
L58204 62860
" />
<path d="M59610 62860
L59610 61679
" />
<path d="M60116 62860
L60116 62241
L60060 62129
L59948 62073
L59779 62073
L59666 62129
L59610 62185
" />
<path d="M60848 62860
L60735 62804
L60679 62748
L60623 62635
L60623 62298
L60679 62185
L60735 62129
L60848 62073
L61016 62073
L61129 62129
L61185 62185
L61241 62298
L61241 62635
L61185 62748
L61129 62804
L61016 62860
L60848 62860
" />
<path d="M61916 62860
L61804 62804
L61747 62691
L61747 61679
" />
<path d="M62816 62804
L62704 62860
L62479 62860
L62366 62804
L62310 62691
L62310 62241
L62366 62129
L62479 62073
L62704 62073
L62816 62129
L62872 62241
L62872 62354
L62310 62466
" />
<path d="M63322 62804
L63435 62860
L63660 62860
L63772 62804
L63828 62691
L63828 62635
L63772 62523
L63660 62466
L63491 62466
L63378 62410
L63322 62298
L63322 62241
L63378 62129
L63491 62073
L63660 62073
L63772 62129
" />
<path d="M64222 63310
L64278 63254
L64391 63085
L64447 62973
L64503 62804
L64560 62523
L64560 62298
L64503 62016
L64447 61848
L64391 61735
L64278 61566
L64222 61510
" />
<path d="M66359 63310
L66303 63254
L66191 63085
L66134 62973
L66078 62804
L66022 62523
L66022 62298
L66078 62016
L66134 61848
L66191 61735
L66303 61566
L66359 61510
" />
<path d="M66809 62073
L66809 62860
" />
<path d="M66809 62185
L66866 62129
L66978 62073
L67147 62073
L67259 62129
L67315 62241
L67315 62860
" />
<path d="M68047 62860
L67934 62804
L67878 62748
L67822 62635
L67822 62298
L67878 62185
L67934 62129
L68047 62073
L68215 62073
L68328 62129
L68384 62185
L68440 62298
L68440 62635
L68384 62748
L68328 62804
L68215 62860
L68047 62860
" />
<path d="M68778 62073
L69228 62073
" />
<path d="M68947 61679
L68947 62691
L69003 62804
L69115 62860
L69228 62860
" />
<path d="M70521 62073
L70521 63254
" />
<path d="M70521 62129
L70634 62073
L70859 62073
L70971 62129
L71027 62185
L71084 62298
L71084 62635
L71027 62748
L70971 62804
L70859 62860
L70634 62860
L70521 62804
" />
<path d="M71759 62860
L71646 62804
L71590 62691
L71590 61679
" />
<path d="M72715 62860
L72715 62241
L72659 62129
L72546 62073
L72321 62073
L72209 62129
" />
<path d="M72715 62804
L72602 62860
L72321 62860
L72209 62804
L72152 62691
L72152 62579
L72209 62466
L72321 62410
L72602 62410
L72715 62354
" />
<path d="M73108 62073
L73558 62073
" />
<path d="M73277 61679
L73277 62691
L73333 62804
L73446 62860
L73558 62860
" />
<path d="M74402 62804
L74290 62860
L74065 62860
L73952 62804
L73896 62691
L73896 62241
L73952 62129
L74065 62073
L74290 62073
L74402 62129
L74458 62241
L74458 62354
L73896 62466
" />
<path d="M75471 62860
L75471 61679
" />
<path d="M75471 62804
L75358 62860
L75133 62860
L75021 62804
L74964 62748
L74908 62635
L74908 62298
L74964 62185
L75021 62129
L75133 62073
L75358 62073
L75471 62129
" />
<path d="M75921 63310
L75977 63254
L76089 63085
L76146 62973
L76202 62804
L76258 62523
L76258 62298
L76202 62016
L76146 61848
L76089 61735
L75977 61566
L75921 61510
" />
<path style="fill:#000000; fill-opacity:0.0; 
stroke:#000000; stroke-width:118.11; stroke-opacity:1; 
stroke-linecap:round; stroke-linejoin:round;fill:none"
d="M 36685,66328
38685,64328
36685,62328
34685,64328
36685,66328
Z" /> 
<path d="M40431 64862
L39756 64862
" />
<path d="M40094 64862
L40094 63681
L39981 63849
L39869 63962
L39756 64018
" />
<path d="M41162 63681
L41275 63681
L41387 63737
L41444 63793
L41500 63906
L41556 64131
L41556 64412
L41500 64637
L41444 64749
L41387 64806
L41275 64862
L41162 64862
L41050 64806
L40994 64749
L40938 64637
L40881 64412
L40881 64131
L40938 63906
L40994 63793
L41050 63737
L41162 63681
" />
<path d="M42062 64749
L42119 64806
L42062 64862
L42006 64806
L42062 64749
L42062 64862
" />
<path d="M43243 64862
L42569 64862
" />
<path d="M42906 64862
L42906 63681
L42794 63849
L42681 63962
L42569 64018
" />
<path d="M44256 63681
L44031 63681
L43918 63737
L43862 63793
L43750 63962
L43693 64187
L43693 64637
L43750 64749
L43806 64806
L43918 64862
L44143 64862
L44256 64806
L44312 64749
L44368 64637
L44368 64356
L44312 64243
L44256 64187
L44143 64131
L43918 64131
L43806 64187
L43750 64243
L43693 64356
" />
<path d="M44875 64862
L44875 64074
" />
<path d="M44875 64187
L44931 64131
L45043 64074
L45212 64074
L45324 64131
L45381 64243
L45381 64862
" />
<path d="M45381 64243
L45437 64131
L45549 64074
L45718 64074
L45831 64131
L45887 64243
L45887 64862
" />
<path d="M46449 64862
L46449 64074
" />
<path d="M46449 64187
L46506 64131
L46618 64074
L46787 64074
L46899 64131
L46956 64243
L46956 64862
" />
<path d="M46956 64243
L47012 64131
L47124 64074
L47293 64074
L47405 64131
L47462 64243
L47462 64862
" />
<path d="M49768 63624
L48755 65143
" />
<path d="M51286 63681
L51399 63681
L51511 63737
L51567 63793
L51624 63906
L51680 64131
L51680 64412
L51624 64637
L51567 64749
L51511 64806
L51399 64862
L51286 64862
L51174 64806
L51117 64749
L51061 64637
L51005 64412
L51005 64131
L51061 63906
L51117 63793
L51174 63737
L51286 63681
" />
<path d="M52186 64749
L52242 64806
L52186 64862
L52130 64806
L52186 64749
L52186 64862
" />
<path d="M53255 64074
L53255 64862
" />
<path d="M52973 63624
L52692 64468
L53423 64468
" />
<path d="M54098 63681
L54211 63681
L54323 63737
L54380 63793
L54436 63906
L54492 64131
L54492 64412
L54436 64637
L54380 64749
L54323 64806
L54211 64862
L54098 64862
L53986 64806
L53930 64749
L53873 64637
L53817 64412
L53817 64131
L53873 63906
L53930 63793
L53986 63737
L54098 63681
" />
<path d="M55223 63681
L55336 63681
L55448 63737
L55504 63793
L55561 63906
L55617 64131
L55617 64412
L55561 64637
L55504 64749
L55448 64806
L55336 64862
L55223 64862
L55111 64806
L55054 64749
L54998 64637
L54942 64412
L54942 64131
L54998 63906
L55054 63793
L55111 63737
L55223 63681
" />
<path d="M56067 63681
L56067 63906
" />
<path d="M56517 63681
L56517 63906
" />
<path d="M58260 65312
L58204 65256
L58092 65087
L58035 64974
L57979 64806
L57923 64524
L57923 64299
L57979 64018
L58035 63849
L58092 63737
L58204 63568
L58260 63512
" />
<path d="M58654 63793
L58710 63737
L58823 63681
L59104 63681
L59216 63737
L59273 63793
L59329 63906
L59329 64018
L59273 64187
L58598 64862
L59329 64862
" />
<path d="M60735 64862
L60735 63681
" />
<path d="M61241 64862
L61241 64243
L61185 64131
L61072 64074
L60904 64074
L60791 64131
L60735 64187
" />
<path d="M61972 64862
L61860 64806
L61804 64749
L61747 64637
L61747 64299
L61804 64187
L61860 64131
L61972 64074
L62141 64074
L62254 64131
L62310 64187
L62366 64299
L62366 64637
L62310 64749
L62254 64806
L62141 64862
L61972 64862
" />
<path d="M63041 64862
L62929 64806
L62872 64693
L62872 63681
" />
<path d="M63941 64806
L63828 64862
L63603 64862
L63491 64806
L63435 64693
L63435 64243
L63491 64131
L63603 64074
L63828 64074
L63941 64131
L63997 64243
L63997 64356
L63435 64468
" />
<path d="M64447 64806
L64560 64862
L64785 64862
L64897 64806
L64953 64693
L64953 64637
L64897 64524
L64785 64468
L64616 64468
L64503 64412
L64447 64299
L64447 64243
L64503 64131
L64616 64074
L64785 64074
L64897 64131
" />
<path d="M65347 65312
L65403 65256
L65516 65087
L65572 64974
L65628 64806
L65684 64524
L65684 64299
L65628 64018
L65572 63849
L65516 63737
L65403 63568
L65347 63512
" />
<path d="M67484 65312
L67428 65256
L67315 65087
L67259 64974
L67203 64806
L67147 64524
L67147 64299
L67203 64018
L67259 63849
L67315 63737
L67428 63568
L67484 63512
" />
<path d="M67934 64074
L67934 64862
" />
<path d="M67934 64187
L67990 64131
L68103 64074
L68272 64074
L68384 64131
L68440 64243
L68440 64862
" />
<path d="M69171 64862
L69059 64806
L69003 64749
L68947 64637
L68947 64299
L69003 64187
L69059 64131
L69171 64074
L69340 64074
L69453 64131
L69509 64187
L69565 64299
L69565 64637
L69509 64749
L69453 64806
L69340 64862
L69171 64862
" />
<path d="M69903 64074
L70353 64074
" />
<path d="M70071 63681
L70071 64693
L70128 64806
L70240 64862
L70353 64862
" />
<path d="M71646 64074
L71646 65256
" />
<path d="M71646 64131
L71759 64074
L71984 64074
L72096 64131
L72152 64187
L72209 64299
L72209 64637
L72152 64749
L72096 64806
L71984 64862
L71759 64862
L71646 64806
" />
<path d="M72884 64862
L72771 64806
L72715 64693
L72715 63681
" />
<path d="M73840 64862
L73840 64243
L73783 64131
L73671 64074
L73446 64074
L73333 64131
" />
<path d="M73840 64806
L73727 64862
L73446 64862
L73333 64806
L73277 64693
L73277 64581
L73333 64468
L73446 64412
L73727 64412
L73840 64356
" />
<path d="M74233 64074
L74683 64074
" />
<path d="M74402 63681
L74402 64693
L74458 64806
L74571 64862
L74683 64862
" />
<path d="M75527 64806
L75414 64862
L75189 64862
L75077 64806
L75021 64693
L75021 64243
L75077 64131
L75189 64074
L75414 64074
L75527 64131
L75583 64243
L75583 64356
L75021 64468
" />
<path d="M76596 64862
L76596 63681
" />
<path d="M76596 64806
L76483 64862
L76258 64862
L76146 64806
L76089 64749
L76033 64637
L76033 64299
L76089 64187
L76146 64131
L76258 64074
L76483 64074
L76596 64131
" />
<path d="M77045 65312
L77102 65256
L77214 65087
L77270 64974
L77327 64806
L77383 64524
L77383 64299
L77327 64018
L77270 63849
L77214 63737
L77102 63568
L77045 63512
" />
</g> 
</svg>
